<svg width="279" height="205" viewBox="0 0 279 205" fill="none" xmlns="http://www.w3.org/2000/svg">
<path d="M182.705 39.4707C168.663 39.4707 155.946 45.1057 146.567 54.1828L149.243 58.8998C150.696 61.4751 151.995 64.1523 153.091 66.906C160.151 58.3899 170.804 52.9844 182.68 52.9844C196.136 52.9844 207.987 59.9452 214.894 70.4502H230.185C222.106 52.245 203.884 39.4707 182.705 39.4707Z" fill="#4ACF96"/>
<path d="M230.059 113.669C221.802 131.899 203.427 144.648 182.146 144.648C162.548 144.648 145.421 133.837 136.425 117.901C132.092 110.277 129.62 101.43 129.62 92.0467V91.6642H129.595C129.416 70.3738 112.01 53.1375 90.7038 53.1375C71.5641 53.1375 55.5847 67.0081 52.3735 85.2389H113.36C113.998 87.3297 114.329 89.5479 114.38 91.8172L114.456 98.88H52.3735C55.6356 117.111 71.5641 130.981 90.7038 130.981C102.325 130.981 112.8 125.856 119.936 117.697C120.981 120.247 122.229 122.746 123.555 125.168L126.537 130.395C117.107 139.192 104.517 144.623 90.6783 144.623C61.7012 144.623 38.1016 121.012 38.1016 92.0212V91.6387C38.3309 62.8265 61.8032 39.4453 90.6783 39.4453C110.277 39.4453 127.352 50.2308 136.425 66.1922C140.757 73.816 143.23 82.6126 143.23 91.9957C143.23 113.465 160.687 130.93 182.146 130.93C195.602 130.93 207.504 124.046 214.487 113.618H230.059V113.669Z" fill="url(#paint0_linear_134_29)"/>
<path d="M42.5869 1.38037L47.8879 6.81134L54.6926 3.44567L51.1756 10.1515L56.4511 15.5825L48.9838 14.3076L45.4668 21.039L44.3709 13.5172L36.8782 12.2423L43.6828 8.87664L42.5869 1.38037Z" fill="#57D131"/>
<path d="M68.6339 0L72.2783 3.74814L76.9931 1.42786L74.5465 6.06841L78.2164 9.81655L73.0429 8.94963L70.6217 13.5902L69.8572 8.38869L64.6836 7.52177L69.3984 5.2015L68.6339 0Z" fill="#57D131"/>
<path d="M91.2399 0.538574L94.2982 3.64927L98.1975 1.71146L96.1586 5.56159L99.2169 8.67229L94.9099 7.95835L92.8965 11.8085L92.2594 7.4994L87.9778 6.75997L91.8771 4.82216L91.2399 0.538574Z" fill="#57D131"/>
<path d="M25.7669 21.2139L26.506 26.3899L21.8167 28.7101L26.9902 29.6026L27.7293 34.804L30.1759 30.138L35.3495 31.0304L31.6796 27.2823L34.1262 22.6417L29.4114 24.962L25.7669 21.2139Z" fill="#57D131"/>
<path d="M12.4362 39.4985L13.0734 43.8076L9.17407 45.7454L13.4557 46.4849L14.0928 50.7939L16.1062 46.9438L20.3877 47.6577L17.3549 44.547L19.3683 40.6969L15.469 42.6347L12.4362 39.4985Z" fill="#57D131"/>
<path d="M103.218 14.5103L87.3657 30.9307L90.2201 36.6931C80.663 34.6278 70.7491 35.8262 61.8547 40.2373C53.2915 44.4698 46.5123 51.2522 42.3072 59.6409L39.9116 54.7963L23.9576 57.5501L25.8945 61.5277C27.4236 61.4002 28.9528 62.1906 29.6919 63.6695C30.38 65.0463 30.1506 66.6272 29.2841 67.7491L36.0633 73.0016L26.3278 77.8206L26.2768 69.2279C24.8496 69.2279 23.4734 68.463 22.7853 67.0862C22.0717 65.6073 22.352 63.9244 23.3969 62.7771L21.0522 58.06L16.9236 58.774L51.9408 19.9667L103.218 14.5103Z" fill="#2D2E83"/>
<path d="M0 165.966H25.8679V173.182H7.46728V181.29H23.7526V188.506H7.46728V196.716H26.5815V203.932H0V165.966Z" fill="#1E1E1E"/>
<path d="M42.3059 204.54C40.2161 204.54 38.3301 204.056 36.699 203.061C35.0425 202.092 33.7427 200.664 32.7998 198.803C31.8568 196.942 31.3726 194.749 31.3726 192.199C31.3726 189.649 31.8823 187.482 32.9272 185.697C33.9466 183.912 35.3738 182.561 37.1578 181.618C38.9418 180.7 40.9806 180.215 43.2488 180.215C44.7015 180.215 46.0777 180.445 47.403 180.878C48.7282 181.337 49.8241 182 50.7161 182.944V185.213V163.208H57.8776V203.877H50.6651V199.491L51.2258 201.047C50.0535 202.016 48.7537 202.832 47.3011 203.495C45.8484 204.158 44.1918 204.54 42.3059 204.54ZM44.676 198.446C45.6445 198.446 46.4855 198.319 47.2246 198.064C47.9637 197.809 48.6263 197.426 49.187 196.942C49.7477 196.432 50.2319 195.82 50.6651 195.055V189.547C50.3848 188.783 49.977 188.145 49.3909 187.61C48.8302 187.074 48.1421 186.666 47.3265 186.36C46.511 186.08 45.6445 185.927 44.676 185.927C43.6056 185.927 42.6117 186.182 41.7197 186.717C40.8022 187.253 40.0886 187.992 39.5279 188.91C38.9673 189.828 38.7124 190.899 38.7124 192.097C38.7124 193.296 38.9928 194.392 39.5279 195.335C40.0886 196.304 40.8022 197.044 41.7197 197.605C42.6372 198.166 43.6056 198.446 44.676 198.446Z" fill="#1E1E1E"/>
<path d="M72.5566 204.998C70.5178 204.998 68.8357 204.36 67.4595 203.111C66.0833 201.862 65.3697 200.23 65.2932 198.241V181.387H72.5056V195.564C72.5821 196.558 72.8369 197.349 73.2702 197.961C73.7289 198.573 74.468 198.853 75.5384 198.853C76.6088 198.853 77.5263 198.496 78.2909 197.782C79.0554 197.068 79.6671 196.074 80.1003 194.824C80.5336 193.575 80.7375 192.147 80.7375 190.566V181.387H87.9499V203.927H81.4001L80.8394 199.796L80.9414 200.255C80.4316 201.173 79.769 202.015 78.979 202.729C78.1889 203.443 77.2459 204.004 76.1756 204.411C75.1052 204.794 73.9073 204.998 72.5566 204.998Z" fill="#1E1E1E"/>
<path d="M114.506 201.915C113.512 202.705 112.264 203.343 110.76 203.827C109.256 204.312 107.804 204.541 106.351 204.541C103.777 204.541 101.534 204.057 99.6228 203.113C97.7113 202.17 96.2332 200.819 95.1883 199.034C94.1434 197.274 93.6082 195.133 93.6082 192.608C93.6082 190.11 94.1688 187.968 95.3157 186.183C96.4371 184.424 97.9407 183.072 99.7757 182.129C101.611 181.211 103.548 180.727 105.561 180.727C107.6 180.727 109.358 181.007 110.836 181.542C112.34 182.103 113.614 182.817 114.685 183.71L111.168 188.35C110.684 187.968 110.021 187.585 109.18 187.203C108.339 186.82 107.345 186.617 106.224 186.617C105.23 186.617 104.312 186.871 103.497 187.381C102.681 187.891 102.018 188.605 101.534 189.498C101.05 190.39 100.821 191.436 100.821 192.583C100.821 193.679 101.075 194.699 101.585 195.617C102.095 196.535 102.808 197.274 103.726 197.81C104.643 198.345 105.714 198.6 106.937 198.6C107.727 198.6 108.466 198.498 109.129 198.269C109.792 198.039 110.378 197.733 110.862 197.325L114.506 201.915Z" fill="#1E1E1E"/>
<path d="M118.33 192.379C118.33 190.084 118.865 188.019 119.961 186.183C121.031 184.373 122.56 182.919 124.523 181.874C126.485 180.828 128.728 180.293 131.276 180.293C133.85 180.293 136.093 180.828 137.979 181.874C139.865 182.919 141.318 184.347 142.337 186.183C143.356 187.993 143.866 190.059 143.866 192.379C143.866 194.674 143.356 196.764 142.337 198.6C141.318 200.436 139.865 201.889 137.979 202.96C136.093 204.031 133.825 204.567 131.174 204.567C128.702 204.567 126.485 204.082 124.548 203.113C122.611 202.144 121.082 200.767 119.986 198.932C118.865 197.096 118.33 194.903 118.33 192.379ZM125.593 192.43C125.593 193.603 125.822 194.648 126.307 195.591C126.791 196.535 127.428 197.274 128.269 197.835C129.085 198.396 130.027 198.651 131.047 198.651C132.168 198.651 133.162 198.371 133.978 197.835C134.793 197.274 135.43 196.535 135.889 195.591C136.348 194.648 136.552 193.577 136.552 192.43C136.552 191.231 136.322 190.161 135.889 189.243C135.43 188.325 134.819 187.585 133.978 187.024C133.162 186.463 132.168 186.208 131.047 186.208C130.027 186.208 129.085 186.489 128.269 187.024C127.453 187.585 126.791 188.325 126.307 189.243C125.822 190.161 125.593 191.206 125.593 192.43Z" fill="#1E1E1E"/>
<path d="M156.048 181.389L156.609 185.418L156.507 185.061C157.297 183.659 158.418 182.511 159.845 181.644C161.298 180.777 163.057 180.318 165.146 180.318C167.287 180.318 169.046 180.956 170.473 182.205C171.9 183.455 172.639 185.086 172.665 187.075V203.929H165.452V189.752C165.427 188.758 165.146 187.968 164.662 187.356C164.153 186.744 163.337 186.463 162.165 186.463C161.069 186.463 160.1 186.82 159.285 187.534C158.469 188.248 157.832 189.242 157.373 190.466C156.915 191.716 156.711 193.118 156.711 194.75V203.929H149.498V181.389H156.048Z" fill="#1E1E1E"/>
<path d="M186.656 181.389L187.216 185.418L187.114 185.061C187.904 183.659 189.026 182.511 190.453 181.644C191.906 180.777 193.664 180.318 195.754 180.318C197.895 180.318 199.653 180.956 201.08 182.205C202.508 183.455 203.247 185.086 203.272 187.075V203.929H196.06V189.752C196.034 188.758 195.754 187.968 195.27 187.356C194.76 186.744 193.944 186.463 192.772 186.463C191.676 186.463 190.708 186.82 189.892 187.534C189.077 188.248 188.439 189.242 187.981 190.466C187.522 191.716 187.318 193.118 187.318 194.75V203.929H180.106V181.389H186.656Z" fill="#1E1E1E"/>
<path d="M221.802 204.542C219.049 204.542 216.73 204.032 214.818 202.986C212.907 201.966 211.454 200.539 210.46 198.703C209.466 196.892 208.957 194.776 208.957 192.405C208.957 190.136 209.543 188.096 210.715 186.26C211.888 184.45 213.442 182.996 215.405 181.9C217.367 180.829 219.533 180.268 221.954 180.268C225.191 180.268 227.842 181.211 229.906 183.073C231.996 184.934 233.321 187.662 233.958 191.181L216.424 196.739L214.818 192.813L227.485 188.529L225.981 189.192C225.701 188.3 225.217 187.509 224.503 186.846C223.789 186.183 222.744 185.852 221.343 185.852C220.272 185.852 219.329 186.107 218.539 186.591C217.724 187.101 217.112 187.79 216.679 188.708C216.246 189.626 216.042 190.697 216.042 191.92C216.042 193.323 216.297 194.496 216.806 195.465C217.316 196.408 218.03 197.122 218.922 197.606C219.814 198.091 220.808 198.32 221.903 198.32C222.694 198.32 223.458 198.193 224.197 197.912C224.936 197.632 225.675 197.275 226.389 196.841L229.575 202.196C228.377 202.884 227.077 203.445 225.675 203.853C224.35 204.338 223.025 204.542 221.802 204.542Z" fill="#1E1E1E"/>
<path d="M258.348 201.915C257.354 202.705 256.105 203.343 254.601 203.827C253.098 204.312 251.645 204.541 250.192 204.541C247.618 204.541 245.375 204.057 243.464 203.113C241.553 202.17 240.074 200.819 239.03 199.034C237.985 197.274 237.449 195.133 237.449 192.608C237.449 190.11 238.01 187.968 239.157 186.183C240.278 184.424 241.782 183.072 243.617 182.129C245.452 181.211 247.389 180.727 249.402 180.727C251.441 180.727 253.2 181.007 254.678 181.542C256.181 182.103 257.456 182.817 258.526 183.71L255.035 188.35C254.55 187.968 253.888 187.585 253.047 187.203C252.206 186.82 251.212 186.617 250.09 186.617C249.096 186.617 248.179 186.871 247.363 187.381C246.548 187.891 245.885 188.605 245.401 189.498C244.917 190.39 244.687 191.436 244.687 192.583C244.687 193.679 244.942 194.699 245.452 195.617C245.962 196.535 246.675 197.274 247.593 197.81C248.51 198.345 249.581 198.6 250.804 198.6C251.594 198.6 252.333 198.498 252.996 198.269C253.658 198.039 254.244 197.733 254.729 197.325L258.348 201.915Z" fill="#1E1E1E"/>
<path d="M266.02 171.496H273.232V181.287H278.686V186.896H273.232V203.903H266.02V186.896H262.503V181.287H266.02V171.496Z" fill="#1E1E1E"/>
<defs>
<linearGradient id="paint0_linear_134_29" x1="38.1143" y1="92.0623" x2="230.062" y2="92.0623" gradientUnits="userSpaceOnUse">
<stop stop-color="#4ACF96"/>
<stop offset="0.3919" stop-color="#2BAA73"/>
<stop offset="0.7708" stop-color="#04FE93"/>
<stop offset="1" stop-color="#6FC7A2"/>
</linearGradient>
</defs>
</svg>
